#!OML:ASF F:\Work\Patient Classification 1\justin\Session 1\justin.ASF
:FULLY-SPECIFIED
:DEGREES
1750
root 1.96288 16.4649 -0.16583 -2.12753 9.92464 -0.644325
lowerback 15.9782 -6.50745 -5.21891
upperback -1.57791 -9.17399 5.40644
thorax -8.89445 -4.0346 10.9448
lowerneck -18.4694 -3.31605 -11.1556
upperneck 17.8984 -4.61032 14.3323
head 9.28587 -1.41728 6.27099
rclavicle -1.24042e-013 3.65764e-014
rhumerus -38.0855 -7.6449 -72.7655
rradius 60.0516
rwrist -25.5287
rhand -14.68 24.9866
rfingers 7.12502
rthumb 11.4734 -4.67945
lclavicle -1.24042e-013 3.65764e-014
lhumerus 2.17329 -10.4561 99.3896
lradius 102.599
lwrist 9.16279
lhand -12.0102 6.10846
lfingers 7.12502
lthumb 14.0472 35.6138
rfemur -38.2515 6.19103 6.35288
rtibia 39.5583
rfoot 2.11841 12.286
rtoes -19.743
lfemur 7.77147 16.9983 -13.5759
ltibia 42.5156
lfoot -33.8377 5.91925
ltoes -26.6364
1751
root 1.95466 16.4326 -0.150734 -2.19998 9.64224 -0.495646
lowerback 16.8464 -6.49062 -5.27625
upperback -1.67129 -9.1944 5.33152
thorax -9.48941 -3.98785 11.0617
lowerneck -18.5751 -3.20792 -11.1419
upperneck 17.8352 -4.46693 14.4254
head 9.26494 -1.3367 6.32104
rclavicle 7.48424e-014 -1.74931e-014
rhumerus -40.272 -8.76205 -72.356
rradius 57.9617
rwrist -25.7642
rhand -15.156 24.9731
rfingers 7.12502
rthumb 11.0143 -4.71792
lclavicle 7.48424e-014 -1.74931e-014
lhumerus 1.56454 -9.84859 99.2846
lradius 103.435
lwrist 9.3458
lhand -12.0105 6.3749
lfingers 7.12502
lthumb 14.0469 35.8802
rfemur -38.7486 6.42237 6.26945
rtibia 40.4256
rfoot 1.88551 12.4181
rtoes -18.0755
lfemur 7.67021 17.3303 -13.4947
ltibia 43.1855
lfoot -33.8022 5.57546
ltoes -27.311
1752
root 1.93463 16.4007 -0.115446 -2.36517 9.98145 -0.383816
lowerback 16.1857 -6.59185 -5.55937
upperback -0.718822 -9.3564 5.33641
thorax -7.97851 -4.20639 11.0135
lowerneck -19.6735 -3.32684 -11.3796
upperneck 17.3854 -4.51725 14.9064
head 9.3419 -1.29091 6.52632
rclavicle 4.80065e-014 -1.90833e-014
rhumerus -41.0126 -10.7879 -71.9978
rradius 56.0115
rwrist -25.5129
rhand -15.4895 24.8525
rfingers 7.12502
rthumb 10.6926 -4.85543
lclavicle 4.80065e-014 -1.90833e-014
lhumerus 2.64495 -9.68462 98.9502
lradius 104.11
lwrist 9.49349
lhand -11.9092 6.8196
lfingers 7.12502
lthumb 14.1445 36.3181
rfemur -38.8875 6.41568 6.18215
rtibia 41.3699
rfoot 1.34852 12.1685
rtoes -17.5157
lfemur 7.74019 17.1528 -13.2308
ltibia 43.8059
lfoot -33.9247 4.82028
ltoes -27.2695
1753
root 1.91743 16.3629 -0.0845507 -2.43893 10.2177 -0.200443
lowerback 16.2082 -6.74006 -5.92035
upperback -0.422812 -9.61558 5.42486
thorax -7.53388 -4.36305 11.3215
lowerneck -19.8505 -3.23423 -11.6407
upperneck 17.0981 -4.2809 15.0067
head 9.24816 -1.18368 6.63254
rclavicle 1.04163e-013 -5.40694e-014
rhumerus -42.6161 -12.2746 -71.1414
rradius 54.0072
rwrist -24.9001
rhand -15.4659 24.8594
rfingers 7.12502
rthumb 10.7153 -4.84733
lclavicle 1.04163e-013 -5.40694e-014
lhumerus 2.53484 -8.93955 98.9451
lradius 104.981
lwrist 9.52017
lhand -11.8122 7.09569
lfingers 7.12502
lthumb 14.2379 36.5877
rfemur -39.1753 6.33674 6.04981
rtibia 42.3916
rfoot 0.723791 11.9838
rtoes -18.7312
lfemur 7.71313 17.0453 -13.1256
ltibia 44.3664
lfoot -34.0208 4.53822
ltoes -27.813
1754
root 1.89881 16.3181 -0.0646956 -2.50675 10.0809 -0.239223
lowerback 16.9551 -6.78038 -6.1061
upperback -0.572571 -9.71936 5.60455
thorax -8.0272 -4.35631 11.7989
lowerneck -19.6095 -3.05032 -11.6664
upperneck 16.9504 -3.96012 14.724
head 9.09637 -1.07377 6.56716
rclavicle 6.03311e-014 -1.59028e-015
rhumerus -44.8408 -13.3501 -69.9234
rradius 52.0339
rwrist -24.4571
rhand -15.6401 24.7317
rfingers 7.12502
rthumb 10.5473 -4.98362
lclavicle 6.03311e-014 -1.59028e-015
lhumerus 1.93168 -7.96348 98.9483
lradius 105.843
lwrist 9.6083
lhand -11.7287 7.40869
lfingers 7.12502
lthumb 14.3184 36.895
rfemur -39.7115 6.42325 6.26547
rtibia 43.5124
rfoot 0.0929888 11.8875
rtoes -21.7187
lfemur 7.67654 17.2422 -12.7905
ltibia 44.8073
lfoot -34.0769 4.45508
ltoes -28.6403
1755
root 1.88051 16.2737 -0.03651 -2.59698 10.0013 -0.0817363
lowerback 17.0452 -6.74912 -6.34712
upperback -0.179186 -9.72795 5.56272
thorax -7.60724 -4.39994 11.853
lowerneck -19.8489 -3.0182 -11.5448
upperneck 16.4581 -3.87192 14.7065
head 8.95722 -1.02033 6.53375
rclavicle 3.51849e-014 -1.43125e-014
rhumerus -46.4814 -14.896 -69.0128
rradius 50.311
rwrist -24.5194
rhand -15.6598 24.5301
rfingers 7.12502
rthumb 10.5283 -5.1862
lclavicle 3.51849e-014 -1.43125e-014
lhumerus 2.44863 -7.50934 98.5082
lradius 106.425
lwrist 9.62945
lhand -11.9273 6.45034
lfingers 7.12502
lthumb 14.1271 35.9501
rfemur -40.185 6.50087 6.24435
rtibia 44.7088
rfoot -0.35003 11.7536
rtoes -22.2138
lfemur 7.83079 17.4059 -12.6378
ltibia 45.1269
lfoot -34.2805 4.1936
ltoes -29.0772
1756
root 1.87948 16.2271 -8.102e-005 -2.54497 10.1417 0.826696
lowerback 16.8733 -6.74689 -7.04525
upperback 0.234038 -9.8727 5.2802
thorax -6.95794 -4.51926 11.8637
lowerneck -20.0159 -2.97764 -11.6689
upperneck 15.9535 -3.75906 14.9434
head 8.80883 -0.948609 6.63961
rclavicle 3.37934e-014 -3.49861e-014
rhumerus -48.1354 -16.3766 -68.0073
rradius 48.7104
rwrist -24.7179
rhand -15.4942 24.3709
rfingers 7.12502
rthumb 10.688 -5.3372
lclavicle 3.37934e-014 -3.49861e-014
lhumerus 2.89726 -7.18287 98.1088
lradius 107.326
lwrist 9.48066
lhand -12.2787 5.34233
lfingers 7.12502
lthumb 13.7884 34.8654
rfemur -40.594 6.02672 5.34816
rtibia 45.9632
rfoot -0.80917 12.0792
rtoes -21.1719
lfemur 8.11246 17.4118 -13.4702
ltibia 45.278
lfoot -34.6848 4.14725
ltoes -29.4899
